<svg
        xmlns="http://www.w3.org/2000/svg"
        viewBox="0 0 24 24"
        fill="currentColor"
        className="w-8 h-8 text-indigo-600"
      >
        {/* Updated Gavel Icon */}
        <path d="M1 21h12v2H1zM19.34 7.34c-1.3-1.3-3.39-1.3-4.69 0l-1.06 1.06-2.12-2.12 1.06-1.06c1.3-1.3 1.3-3.39 0-4.69s-3.39-1.3-4.69 0l-4.24 4.24c-1.3 1.3-1.3 3.39 0 4.69l4.24 4.24c1.3 1.3 3.39 1.3 4.69 0l1.06-1.06 2.12 2.12-1.06 1.06c-1.3 1.3-1.3 3.39 0 4.69s3.39 1.3 4.69 0l4.24-4.24c1.3-1.3 1.3-3.39 0-4.69l-4.24-4.24zM3.81 10.18l-1.41 1.41c-.59.59-.59 1.54 0 2.12l4.24 4.24c.59.59 1.54.59 2.12 0l1.41-1.41L3.81 10.18zm14.77-1.41l-4.24-4.24c-.59-.59-1.54-.59-2.12 0L10.81 6l6.36 6.36 1.41-1.41c.58-.59.58-1.54 0-2.12z" />
      </svg>